<svg width="710" height="359" viewBox="0 0 710 359" fill="none" xmlns="http://www.w3.org/2000/svg">
<path fill-rule="evenodd" clip-rule="evenodd" d="M211.379 230.506C130.776 214.699 181.319 109.804 247.905 145.876L211.379 230.506Z" fill="#6AD7E5"/>
<path d="M212.559 232.693L211.004 232.392C201.388 231.542 192.249 227.824 184.772 221.717C177.295 215.611 171.825 207.4 169.071 198.147C167.356 188.551 168.355 178.666 171.955 169.607C175.554 160.548 181.612 152.674 189.446 146.871C197.933 140.508 208.136 136.843 218.733 136.352C229.329 135.861 239.828 138.567 248.867 144.118L250.44 144.97L212.559 232.693ZM216.391 140.438C207.455 141.16 198.921 144.461 191.825 149.94C184.584 155.273 178.974 162.521 175.627 170.868C172.281 179.215 171.33 188.33 172.881 197.188C175.35 205.467 180.208 212.833 186.846 218.362C193.484 223.891 201.607 227.337 210.196 228.269L245.392 146.756C236.497 142.013 226.456 139.842 216.395 140.488L216.391 140.438Z" fill="black"/>
<path fill-rule="evenodd" clip-rule="evenodd" d="M554.355 113.626C613.125 64.801 677.528 159.111 607.04 189.818L554.355 113.626Z" fill="#6AD7E5"/>
<path d="M606.358 192.255L551.717 113.261L553.105 112.121C560.569 105.091 569.957 100.441 580.073 98.7645C590.188 97.0879 600.574 98.4602 609.908 102.707C618.751 106.98 626.234 113.625 631.523 121.901C636.813 130.176 639.701 139.758 639.866 149.578C639.351 158.99 636.02 168.03 630.304 175.525C624.588 183.02 616.752 188.625 607.812 191.612L606.358 192.255ZM557.017 113.988L607.743 187.328C615.635 184.481 622.516 179.376 627.53 172.649C632.545 165.922 635.472 157.869 635.947 149.493C635.78 140.421 633.098 131.573 628.201 123.935C623.304 116.297 616.384 110.168 608.21 106.229C599.871 102.292 590.549 100.927 581.431 102.309C572.314 103.691 563.815 107.757 557.017 113.988Z" fill="black"/>
<path fill-rule="evenodd" clip-rule="evenodd" d="M212.443 202.605C201.609 197.935 193.383 191.098 198.775 178.625C203.759 167.013 214.793 167.303 225.629 171.998L212.443 202.605Z" fill="black"/>
<path fill-rule="evenodd" clip-rule="evenodd" d="M588.252 161.76C598.2 155.416 605.226 147.351 597.908 135.902C591.13 125.236 580.285 127.288 570.339 133.657L588.252 161.76Z" fill="black"/>
<path fill-rule="evenodd" clip-rule="evenodd" d="M394.982 84.5485C473.876 78.1957 548.746 83.5286 593.4 156.229C634.854 238.392 629.922 331.012 642.434 420.371C653.178 497.106 670.392 585.359 640.387 659.707C608.811 737.894 516.313 764.378 438.616 767.851C377.589 770.583 302.502 756.639 263.687 703.809C218.141 641.84 229.42 543.317 226.492 470.517C223.035 384.291 189.352 300.199 210.838 213.82C233.121 124.243 310.524 98.1211 395.007 84.5464" fill="#6AD7E5"/>
<path d="M452.272 768.933C447.288 769.334 442.803 769.696 438.721 769.774C401.233 771.438 308.797 768.472 262.122 704.939C225.307 654.832 225.244 581.475 225.173 516.747C225.167 500.47 225.131 485.073 224.565 470.572C222.691 440.022 218.927 409.618 213.297 379.533C200.377 325.025 198.894 268.431 208.942 213.321C213.356 193.614 221.83 175.044 233.822 158.796C245.814 142.547 261.062 128.977 278.592 118.951C314.641 99.6047 354.03 87.2671 394.674 82.5919L394.823 82.5798C471.849 76.3775 549.436 80.8897 595.072 155.192L595.084 155.341C621.104 215.855 635.225 280.815 636.675 346.67C638.744 370.807 640.906 395.789 644.293 420.096C645.319 427.537 646.419 434.973 647.519 442.409C657.805 512.835 669.451 592.683 642.121 660.37C608.071 744.901 506.521 764.565 452.272 768.933ZM395.213 86.4861C313.652 99.5997 235.22 124.149 212.706 214.272C202.811 268.865 204.31 324.914 217.108 378.9C222.741 409.153 226.492 439.726 228.342 470.443C228.916 485.044 228.956 500.491 228.964 516.793C229.111 580.913 229.095 653.599 265.149 702.663C310.724 764.68 401.498 767.554 438.408 765.886C486.441 763.749 602.057 749.022 638.421 658.963C665.354 592.261 653.779 512.984 643.608 443.05C642.508 435.614 641.42 428.027 640.382 420.737C636.962 396.332 634.821 371.298 632.748 347.112C631.314 281.791 617.347 217.354 591.605 157.302C547.165 84.7595 470.945 80.4131 395.213 86.4861Z" fill="black"/>
<path fill-rule="evenodd" clip-rule="evenodd" d="M417.44 189.334C438.215 270.428 571.086 237.934 545.065 156.484C521.626 83.4301 406.588 113.435 417.44 189.334Z" fill="white"/>
<path d="M485.709 237.911C477.337 238.617 468.907 237.922 460.763 235.857C449.685 233.157 439.584 227.411 431.602 219.268C423.619 211.126 418.075 200.913 415.595 189.784L415.579 189.584C413.2 172.456 417.557 155.073 427.732 141.091C437.907 127.109 453.108 117.618 470.137 114.613C485.782 110.031 502.601 111.789 516.96 119.507C531.319 127.226 542.063 140.286 546.871 155.863C550.623 165.956 551.481 176.896 549.349 187.451C547.216 198.005 542.178 207.754 534.801 215.599C521.672 228.726 504.232 236.652 485.709 237.911ZM419.315 188.957C421.662 199.396 426.874 208.972 434.365 216.611C441.857 224.249 451.331 229.645 461.722 232.193C474.106 235.265 487.071 235.113 499.38 231.751C511.688 228.389 522.93 221.929 532.033 212.988C538.951 205.619 543.668 196.46 545.649 186.549C547.631 176.637 546.797 166.369 543.243 156.907C538.672 142.254 528.513 129.991 514.966 122.773C501.42 115.555 485.576 113.963 470.864 118.342C454.816 121.178 440.487 130.112 430.878 143.275C421.269 156.438 417.126 172.808 419.315 188.957Z" fill="black"/>
<path fill-rule="evenodd" clip-rule="evenodd" d="M257.682 215.591C281.795 285.807 395.089 258.125 384.97 186.656C372.852 100.953 233.022 128.941 257.657 215.593" fill="white"/>
<path d="M322.717 257.958C311.053 259.01 299.311 257.146 288.546 252.533C280.853 249.125 273.968 244.125 268.346 237.865C262.724 231.604 258.491 224.224 255.926 216.209C252.194 205.277 251.683 193.502 254.453 182.287C257.222 171.072 263.157 160.89 271.549 152.951C281.711 143.823 294.1 137.537 307.467 134.726C320.834 131.914 334.706 132.678 347.684 136.939C358.261 140.579 367.57 147.182 374.502 155.961C381.434 164.741 385.697 175.327 386.785 186.46C388.659 202.486 384.335 218.621 374.699 231.562C365.064 244.503 350.845 253.271 334.955 256.07C330.93 257.014 326.839 257.646 322.717 257.958ZM259.444 215.048C264.603 229.755 275.284 241.878 289.224 248.849C303.164 255.82 319.27 257.093 334.133 252.399C349.116 249.793 362.537 241.561 371.651 229.386C380.765 217.211 384.881 202.013 383.159 186.903C382.156 176.431 378.161 166.47 371.652 158.207C365.143 149.943 356.395 143.727 346.45 140.299C334.112 136.243 320.923 135.513 308.214 138.183C295.504 140.854 283.724 146.83 274.062 155.508C266.177 162.989 260.608 172.577 258.016 183.133C255.425 193.688 255.92 204.766 259.444 215.048Z" fill="black"/>
<path fill-rule="evenodd" clip-rule="evenodd" d="M441.643 286.831C443.735 298.071 444.788 309.48 444.789 320.913C442.463 326.292 437.149 327.272 432.708 329.736C429.526 329.496 426.457 328.448 423.793 326.693C421.128 324.937 418.955 322.531 417.478 319.702C415.755 306.883 415.057 293.948 415.392 281.019L441.643 286.831Z" fill="white"/>
<path d="M433.144 331.733L432.571 331.779C429.045 331.508 425.646 330.337 422.7 328.379C419.755 326.421 417.36 323.74 415.744 320.594L415.724 320.344L415.702 320.07C414.162 311.323 413.523 302.441 413.793 293.563C413.79 289.475 413.777 285.262 413.563 281.041L413.362 278.549L443.518 285.2L443.635 286.645C443.919 290.184 444.513 293.823 445.123 297.662C446.665 305.365 447.231 313.232 446.808 321.077L446.832 321.376L446.705 321.662C445.722 323.625 444.356 325.371 442.687 326.797C441.019 328.224 439.082 329.302 436.99 329.969C435.853 330.486 434.787 330.949 433.755 331.533L433.144 331.733ZM419.355 319.024C420.648 321.411 422.5 323.449 424.754 324.962C427.008 326.476 429.595 327.42 432.294 327.713C433.282 327.207 434.298 326.749 435.265 326.295C438.455 325.361 441.171 323.251 442.866 320.391C443.165 312.978 442.567 305.557 441.086 298.288C440.562 294.894 440.05 291.649 439.71 288.366L417.368 283.443C417.466 286.846 417.488 290.231 417.498 293.465C417.232 302.025 417.837 310.59 419.305 319.028L419.355 319.024Z" fill="black"/>
<path d="M290.078 222.338C300.785 221.476 308.708 211.383 307.775 199.795C306.842 188.207 297.406 179.512 286.699 180.374C275.991 181.236 268.068 191.329 269.001 202.917C269.934 214.505 279.37 223.2 290.078 222.338Z" fill="black"/>
<path d="M298.02 210.713C300.539 210.51 302.388 207.958 302.151 205.013C301.914 202.068 299.68 199.845 297.161 200.047C294.643 200.25 292.793 202.802 293.031 205.747C293.268 208.693 295.502 210.916 298.02 210.713Z" fill="white"/>
<path d="M452.031 204.03C462.559 203.182 470.338 193.101 469.405 181.513C468.471 169.925 459.18 161.218 448.652 162.066C438.123 162.914 430.345 172.995 431.278 184.583C432.211 196.171 441.502 204.878 452.031 204.03Z" fill="black"/>
<path d="M459.824 192.417C462.301 192.218 464.117 189.668 463.88 186.723C463.643 183.778 461.442 181.552 458.965 181.752C456.488 181.951 454.672 184.5 454.909 187.446C455.146 190.391 457.347 192.617 459.824 192.417Z" fill="white"/>
<path fill-rule="evenodd" clip-rule="evenodd" d="M386.153 290.12C379.355 311.284 395.813 351.217 416.33 319.142C414.606 306.324 413.908 293.389 414.243 280.46L386.153 290.12Z" fill="white"/>
<path d="M402.032 333.135C400.05 333.284 398.065 332.908 396.275 332.043C390.328 326.916 386.022 320.152 383.892 312.595C381.763 305.037 381.905 297.02 384.301 289.542L384.602 288.615L415.982 277.761L416.183 280.253C416.399 284.5 416.392 288.764 416.389 292.777C416.108 301.388 416.717 310.004 418.208 318.489L418.273 319.286L417.851 319.972C411.972 329.5 406.492 332.775 402.032 333.135ZM387.756 291.647C385.885 298.123 385.846 304.991 387.644 311.488C389.443 317.985 393.007 323.855 397.942 328.448C404.146 331.359 410.201 324.953 414.24 318.733C412.832 310.237 412.247 301.624 412.495 293.015C412.486 289.781 412.47 286.471 412.382 283.193L387.756 291.647Z" fill="black"/>
<path fill-rule="evenodd" clip-rule="evenodd" d="M385.865 250.415C381.962 251.102 378.278 252.706 375.117 255.096C371.956 257.487 369.408 260.594 367.684 264.163C365.96 267.731 365.11 271.658 365.202 275.62C365.294 279.582 366.327 283.466 368.216 286.95C380.637 305.713 403.137 282.382 418.4 283.185C435.872 282.129 451.477 299.006 464.191 282.783C478.338 264.739 454.842 250.153 436.91 244.248L385.865 250.415Z" fill="#F6D2A2"/>
<path d="M452.425 291.781C446.827 291.792 441.279 290.714 436.093 288.607C430.506 286.371 424.551 285.2 418.534 285.155L418.31 285.173C412.196 285.67 406.254 287.447 400.872 290.39C388.978 295.611 375.483 301.513 366.58 288.135C364.412 284.761 363.138 280.89 362.877 276.888C362.616 272.886 363.377 268.883 365.089 265.256C366.859 261.003 369.651 257.254 373.219 254.341C376.787 251.429 381.02 249.443 385.54 248.56L437.121 242.2L437.534 242.342C450.855 246.737 466.333 255.498 469.785 266.908C470.348 269.685 470.341 272.547 469.765 275.321C469.188 278.095 468.053 280.723 466.429 283.045C464.804 285.367 462.725 287.334 460.317 288.827C457.909 290.321 455.223 291.309 452.421 291.732L452.425 291.781ZM418.401 281.329C424.884 281.338 431.306 282.574 437.33 284.971C447.454 288.294 455.365 290.918 462.672 281.676C464.324 279.888 465.499 277.713 466.089 275.351C466.679 272.989 466.665 270.517 466.048 268.162C463.078 258.369 448.507 250.287 436.703 246.347L386.129 252.451C382.274 253.255 378.672 254.982 375.632 257.486C372.592 259.989 370.205 263.193 368.677 266.823C367.233 269.851 366.583 273.196 366.787 276.545C366.991 279.893 368.042 283.135 369.842 285.966C376.923 296.657 387.875 291.888 399.258 286.858C405.164 283.65 411.695 281.764 418.401 281.329Z" fill="#231F20"/>
<path fill-rule="evenodd" clip-rule="evenodd" d="M383.83 249.751C380.462 222.559 432.248 215.003 440.313 237.303C448.379 259.602 388.103 269.798 383.907 249.77L383.83 249.751Z" fill="black"/>
</svg>
